<?xml version="1.0" standalone="no"?>
<!DOCTYPE svg PUBLIC "-//W3C//DTD SVG 1.0//EN" "http://www.w3.org/TR/2001/REC-SVG-20010904/DTD/svg10.dtd">
<svg xmlns="http://www.w3.org/2000/svg" xmlns:xlink="http://www.w3.org/1999/xlink" id="body_1" width="3631" height="2724">

<defs>
        <clipPath  id="1">

            <path clip-rule="evenodd" transform="matrix(1.333008 0 0 1.333333 0 0)"  d="M0 0L1365.333 0L1365.333 1024L0 1024L0 0z" />        </clipPath>
</defs>

<g transform="matrix(2.660073 0 0 2.660156 0 0)">
	<g clip-path="url(#1)" >
		<g transform="matrix(1.333008 0 0 1.333333 0 0)">
		</g>
        <path transform="matrix(1.333008 0 0 1.333333 0 0)"  d="M465.566 112.654L236.297 223.336C 233.422 224.724 231.596 227.634 231.596 230.826L231.596 230.826L231.596 503.174C 231.596 506.366 233.423 509.276 236.297 510.664L236.297 510.664L465.566 621.346C 470.135 623.552 475.461 623.552 480.03 621.346L480.03 621.346L709.299 510.664C 712.174 509.276 714 506.366 714 503.174L714 503.174L714 230.826C 714 227.634 712.173 224.724 709.299 223.336L709.299 223.336L480.03 112.654C 475.461 110.449 470.135 110.449 465.566 112.654z" stroke="none" fill="#2A487B" fill-rule="nonzero" />
		<g transform="matrix(1.333008 0 0 1.333333 0 0)">
		</g>
        <path transform="matrix(1.333008 0 0 1.333333 0 0)"  d="M232.979 226.273C 232.105 227.604 231.596 229.171 231.596 230.826L231.596 230.826L231.596 503.174C 231.596 506.366 233.423 509.276 236.297 510.664L236.297 510.664L465.566 621.345C 467.85 622.448 470.324 622.999 472.798 622.999L472.798 622.999L472.798 342.048L232.979 226.273z" stroke="none" fill="#2A487B" fill-rule="nonzero" />
		<g transform="matrix(1.333008 0 0 1.333333 0 0)">
		</g>
        <path transform="matrix(1.333008 0 0 1.333333 0 0)"  d="M712.617 226.273C 713.491 227.604 714 229.171 714 230.826L714 230.826L714 503.174C 714 506.366 712.173 509.276 709.299 510.664L709.299 510.664L480.03 621.345C 477.746 622.448 475.272 623 472.798 623L472.798 623L472.798 342.048L712.617 226.273z" stroke="none" fill="#2A487B" fill-rule="nonzero" />
		<g transform="matrix(1.333008 0 0 1.333333 0 0)">
		</g>
        <path transform="matrix(1.333008 0 0 1.333333 0 0)"  d="M300.205 488.657C 298.995 488.657 297.76 488.389 296.599 487.829L296.599 487.829L261.202 470.74C 257.06 468.742 255.33 463.771 257.328 459.637C 259.318 455.503 264.305 453.781 268.431 455.763L268.431 455.763L303.828 472.853C 307.97 474.851 309.7 479.822 307.702 483.956C 306.273 486.927 303.3 488.657 300.205 488.657z" stroke="none" fill="#747474" fill-rule="nonzero" />
		<g transform="matrix(1.333008 0 0 1.333333 0 0)">
		</g>
        <path transform="matrix(1.333008 0 0 1.333333 0 0)"  d="M332.784 467.45C 331.574 467.45 330.339 467.182 329.178 466.622L329.178 466.622L261.25 433.832C 257.116 431.834 255.378 426.863 257.376 422.729C 259.366 418.603 264.361 416.873 268.479 418.855L268.479 418.855L336.406 451.645C 340.54 453.643 342.278 458.614 340.28 462.748C 338.852 465.719 335.879 467.45 332.784 467.45z" stroke="none" fill="#4A86E8" fill-rule="nonzero" />
		<g transform="matrix(1.333008 0 0 1.333333 0 0)">
		</g>
        <path transform="matrix(1.333008 0 0 1.333333 0 0)"  d="M631.347 265.373L390.685 149.11L327.245 179.86L568.447 296.303L631.347 265.373z" stroke="none" fill="#0DA5DD" fill-rule="nonzero" />
		<g transform="matrix(1.333008 0 0 1.333333 0 0)">
		</g>
        <path transform="matrix(1.333008 0 0 1.333333 0 0)"  d="M568.447 296.303L568.447 386.51C 568.447 389.576 571.652 391.588 574.414 390.255L574.414 390.255L626.646 365.04C 629.521 363.652 631.347 360.742 631.347 357.55L631.347 357.55L631.347 265.374L568.447 296.303z" stroke="none" fill="#0DA5DD" fill-rule="nonzero" />
	</g>
</g>
</svg>