<?xml version="1.0" encoding="UTF-8" standalone="no"?><!-- Generator: Gravit.io --><svg xmlns="http://www.w3.org/2000/svg" xmlns:xlink="http://www.w3.org/1999/xlink" style="isolation:isolate" viewBox="0 0 1024 768" width="1024pt" height="768pt"><defs><clipPath id="_clipPath_yUltgGSmeg1pPyQaVj0t3z2joQfWPH2o"><rect width="1024" height="768"/></clipPath></defs><g clip-path="url(#_clipPath_yUltgGSmeg1pPyQaVj0t3z2joQfWPH2o)"><g><path d=" M 465.566 112.654 L 236.297 223.336 C 233.422 224.724 231.596 227.634 231.596 230.826 L 231.596 503.174 C 231.596 506.366 233.423 509.276 236.297 510.664 L 465.566 621.346 C 470.135 623.552 475.461 623.552 480.03 621.346 L 709.299 510.664 C 712.174 509.276 714 506.366 714 503.174 L 714 230.826 C 714 227.634 712.173 224.724 709.299 223.336 L 480.03 112.654 C 475.461 110.449 470.135 110.449 465.566 112.654 Z " fill="rgb(42,72,123)"/><path d=" M 232.979 226.273 C 232.105 227.604 231.596 229.171 231.596 230.826 L 231.596 503.174 C 231.596 506.366 233.423 509.276 236.297 510.664 L 465.566 621.345 C 467.85 622.448 470.324 622.999 472.798 622.999 L 472.798 342.048 L 232.979 226.273 Z " fill="rgb(42,72,123)"/><path d=" M 712.617 226.273 C 713.491 227.604 714 229.171 714 230.826 L 714 503.174 C 714 506.366 712.173 509.276 709.299 510.664 L 480.03 621.345 C 477.746 622.448 475.272 623 472.798 623 L 472.798 342.048 L 712.617 226.273 Z " fill="rgb(42,72,123)"/><path d=" M 300.205 488.657 C 298.995 488.657 297.76 488.389 296.599 487.829 L 261.202 470.74 C 257.06 468.742 255.33 463.771 257.328 459.637 C 259.318 455.503 264.305 453.781 268.431 455.763 L 303.828 472.853 C 307.97 474.851 309.7 479.822 307.702 483.956 C 306.273 486.927 303.3 488.657 300.205 488.657 Z " fill="rgb(116,116,116)"/><path d=" M 332.784 467.45 C 331.574 467.45 330.339 467.182 329.178 466.622 L 261.25 433.832 C 257.116 431.834 255.378 426.863 257.376 422.729 C 259.366 418.603 264.361 416.873 268.479 418.855 L 336.406 451.645 C 340.54 453.643 342.278 458.614 340.28 462.748 C 338.852 465.719 335.879 467.45 332.784 467.45 Z " fill="rgb(74,134,232)"/><path d=" M 631.347 265.373 L 390.685 149.11 L 327.245 179.86 L 568.447 296.303 L 631.347 265.373 Z " fill="rgb(13,165,221)"/><path d=" M 568.447 296.303 L 568.447 386.51 C 568.447 389.576 571.652 391.588 574.414 390.255 L 626.646 365.04 C 629.521 363.652 631.347 360.742 631.347 357.55 L 631.347 265.374 L 568.447 296.303 Z " fill="rgb(13,165,221)"/></g></g></svg>